<svg width="13" height="16" viewBox="0 0 13 16" fill="none" xmlns="http://www.w3.org/2000/svg">
<path d="M1 3.97852C0.447715 3.97852 0 4.42623 0 4.97852C0 5.5308 0.447715 5.97852 1 5.97852V3.97852ZM12 5.97852C12.5523 5.97852 13 5.5308 13 4.97852C13 4.42623 12.5523 3.97852 12 3.97852V5.97852ZM2.92846 4.57852C2.92846 5.1308 3.37618 5.57852 3.92846 5.57852C4.48075 5.57852 4.92846 5.1308 4.92846 4.57852H2.92846ZM5.21418 1.97852V0.978516V1.97852ZM7.78561 1.97852V0.978516V1.97852ZM8.07132 4.57852C8.07132 5.1308 8.51903 5.57852 9.07132 5.57852C9.6236 5.57852 10.0713 5.1308 10.0713 4.57852H8.07132ZM6 7.97852C6 7.42623 5.55228 6.97852 5 6.97852C4.44772 6.97852 4 7.42623 4 7.97852H6ZM4 11.9785C4 12.5308 4.44772 12.9785 5 12.9785C5.55228 12.9785 6 12.5308 6 11.9785H4ZM9 7.97852C9 7.42623 8.55228 6.97852 8 6.97852C7.44772 6.97852 7 7.42623 7 7.97852H9ZM7 11.9785C7 12.5308 7.44772 12.9785 8 12.9785C8.55228 12.9785 9 12.5308 9 11.9785H7ZM1 5.97852H12V3.97852H1V5.97852ZM4.92846 4.57852V3.27852H2.92846V4.57852H4.92846ZM4.92846 3.27852C4.92846 3.19541 4.96122 3.1179 5.01604 3.06247L3.59404 1.65609C3.16663 2.08825 2.92846 2.67206 2.92846 3.27852H4.92846ZM5.01604 3.06247C5.0705 3.00741 5.14199 2.97852 5.21418 2.97852V0.978516C4.60438 0.978516 4.02182 1.22355 3.59404 1.65609L5.01604 3.06247ZM5.21418 2.97852H7.78561V0.978516H5.21418V2.97852ZM7.78561 2.97852C7.85779 2.97852 7.92929 3.00741 7.98374 3.06247L9.40575 1.65609C8.97796 1.22355 8.3954 0.978516 7.78561 0.978516V2.97852ZM7.98374 3.06247C8.03856 3.1179 8.07132 3.19541 8.07132 3.27852H10.0713C10.0713 2.67206 9.83316 2.08825 9.40575 1.65609L7.98374 3.06247ZM8.07132 3.27852V4.57852H10.0713V3.27852H8.07132ZM4 7.97852V11.9785H6V7.97852H4ZM7 7.97852V11.9785H9V7.97852H7ZM10 4.97852V12.9785H12V4.97852H10ZM9 13.9785H4V15.9785H9V13.9785ZM3 12.9785V4.97852H1V12.9785H3ZM4 13.9785C3.44772 13.9785 3 13.5308 3 12.9785H1C1 14.6354 2.34315 15.9785 4 15.9785V13.9785ZM10 12.9785C10 13.5308 9.55228 13.9785 9 13.9785V15.9785C10.6569 15.9785 12 14.6354 12 12.9785H10Z" fill="#FF238D"/>
</svg>
