<svg width="8" height="16" viewBox="0 0 8 16" fill="none" xmlns="http://www.w3.org/2000/svg">
<path d="M4.69594 15.6871C4.30473 16.0776 3.67045 16.0776 3.27924 15.6871L0.293409 12.7081C-0.097803 12.3176 -0.0978031 11.6844 0.293409 11.2939C0.684621 10.9033 1.3189 10.9033 1.71011 11.2939L4.69594 14.2729C5.08715 14.6634 5.08715 15.2966 4.69594 15.6871Z" fill="#8E9CBB"/>
<path d="M3.30385 15.6871C3.69506 16.0776 4.32934 16.0776 4.72055 15.6871L7.70659 12.7081C8.0978 12.3176 8.0978 11.6844 7.70659 11.2939C7.31538 10.9033 6.6811 10.9033 6.28989 11.2939L3.30385 14.2729C2.91264 14.6634 2.91264 15.2966 3.30385 15.6871Z" fill="#8E9CBB"/>
<path d="M3.98759 14.9942C3.43433 14.9942 2.98583 14.5465 2.98583 13.9942V3.97852C2.98583 3.42623 3.43433 2.97852 3.98759 2.97852C4.54085 2.97852 4.98935 3.42623 4.98935 3.97852V13.9942C4.98935 14.5465 4.54085 14.9942 3.98759 14.9942Z" fill="#8E9CBB"/>
<path d="M4.69594 1.27141C4.30473 0.880885 3.67045 0.880885 3.27924 1.27141L0.293409 4.25042C-0.097803 4.64095 -0.0978031 5.27411 0.293409 5.66464C0.684621 6.05516 1.3189 6.05516 1.71011 5.66464L4.69594 2.68562C5.08715 2.2951 5.08715 1.66193 4.69594 1.27141Z" fill="#8E9CBB"/>
<path d="M3.30385 1.27141C3.69506 0.880885 4.32934 0.880885 4.72055 1.27141L7.70659 4.25042C8.0978 4.64095 8.0978 5.27411 7.70659 5.66464C7.31538 6.05516 6.6811 6.05516 6.28989 5.66464L3.30385 2.68562C2.91264 2.2951 2.91264 1.66193 3.30385 1.27141Z" fill="#8E9CBB"/>
</svg>
